<?xml version="1.0" encoding="UTF-8" ?>
<!DOCTYPE svg PUBLIC "-//W3C//DTD SVG 1.1//EN" "http://www.w3.org/Graphics/SVG/1.1/DTD/svg11.dtd">
<svg width="512pt" height="512pt" viewBox="0 0 512 512" version="1.1" xmlns="http://www.w3.org/2000/svg">
<g id="#ffffffff">
<path fill="#ffffff" opacity="1.00" d=" M 231.76 76.79 C 300.89 65.70 373.62 100.56 410.09 159.91 C 445.53 216.08 446.45 292.10 411.87 348.88 C 381.10 400.40 323.48 436.16 262.90 436.05 C 222.34 438.87 181.13 425.74 148.80 401.36 C 137.40 393.92 139.08 375.99 150.25 369.11 C 162.17 360.45 170.85 339.05 188.73 345.07 C 215.51 363.35 249.59 373.10 281.62 364.62 C 330.67 353.82 368.20 307.08 367.99 256.84 C 369.69 200.86 322.93 149.05 267.11 144.79 C 209.76 137.82 153.38 182.88 145.90 239.88 C 159.66 240.37 173.49 239.28 187.21 240.49 C 199.27 242.88 203.12 260.36 194.19 268.24 C 170.87 291.85 147.16 315.10 123.88 338.75 C 118.10 346.35 105.23 347.45 98.76 340.19 C 74.67 316.33 50.84 292.20 26.76 268.33 C 18.20 260.61 21.45 243.59 33.03 240.73 C 47.27 239.15 61.66 240.32 75.97 240.03 C 82.04 158.33 149.91 85.76 231.76 76.79 M 91.94 255.89 C 73.91 256.50 55.85 255.21 37.84 256.52 C 62.13 280.18 85.62 304.67 110.03 328.21 C 134.53 304.62 157.92 279.88 182.50 256.38 C 164.32 255.22 146.08 256.56 127.88 255.82 C 127.87 206.67 158.11 159.07 203.17 139.18 C 237.59 123.27 279.24 123.97 313.15 140.85 C 380.31 171.48 406.17 263.65 364.72 324.73 C 328.23 385.60 240.03 402.60 182.78 361.27 C 172.89 367.09 164.91 378.17 156.94 386.91 C 208.30 426.37 283.26 431.29 338.91 397.90 C 398.69 364.41 432.25 290.66 417.41 223.59 C 403.57 146.39 327.75 86.24 249.21 92.03 C 163.95 93.19 90.28 170.93 91.94 255.89 Z" />
<path fill="#ffffff" opacity="1.00" d=" M 249.70 203.46 C 286.83 196.90 320.18 237.39 306.68 272.73 C 299.35 294.12 277.45 310.94 254.19 308.17 C 226.38 309.13 201.70 282.66 203.90 255.03 C 202.55 229.29 224.51 205.96 249.70 203.46 M 249.69 220.47 C 231.14 223.14 217.30 242.78 220.55 261.21 C 222.90 281.40 244.86 296.27 264.56 291.13 C 279.38 288.25 290.49 275.05 292.56 260.39 C 295.80 237.24 273.07 214.77 249.69 220.47 Z" />
</g>
<g id="#000000ff">
<path fill="#000000" opacity="1.00" d=" M 91.94 255.89 C 90.28 170.93 163.95 93.19 249.21 92.03 C 327.75 86.24 403.57 146.39 417.41 223.59 C 432.25 290.66 398.69 364.41 338.91 397.90 C 283.26 431.29 208.30 426.37 156.94 386.91 C 164.91 378.17 172.89 367.09 182.78 361.27 C 240.03 402.60 328.23 385.60 364.72 324.73 C 406.17 263.65 380.31 171.48 313.15 140.85 C 279.24 123.97 237.59 123.27 203.17 139.18 C 158.11 159.07 127.87 206.67 127.88 255.82 C 146.08 256.56 164.32 255.22 182.50 256.38 C 157.92 279.88 134.53 304.62 110.03 328.21 C 85.62 304.67 62.13 280.18 37.84 256.52 C 55.85 255.21 73.91 256.50 91.94 255.89 Z" />
<path fill="#000000" opacity="1.00" d=" M 249.69 220.47 C 273.07 214.77 295.80 237.24 292.56 260.39 C 290.49 275.05 279.38 288.25 264.56 291.13 C 244.86 296.27 222.90 281.40 220.55 261.21 C 217.30 242.78 231.14 223.14 249.69 220.47 Z" />
</g>
</svg>
